<svg width="28" height="46" viewBox="0 0 28 46" fill="none" xmlns="http://www.w3.org/2000/svg">
<path d="M27.0625 1.33984C27.6875 1.92678 28 2.62173 28 3.42467C28 4.22761 27.6875 4.92177 27.0625 5.50715L8.75 22.7047L27.125 39.9609C27.7083 40.5087 28 41.1935 28 42.0152C28 42.8369 27.6875 43.5412 27.0625 44.1282C26.4375 44.7151 25.6975 45.0086 24.8425 45.0086C23.9875 45.0086 23.2483 44.7151 22.625 44.1282L1.625 24.3481C1.375 24.1133 1.1975 23.859 1.0925 23.5851C0.987499 23.3112 0.935831 23.0177 0.937498 22.7047C0.937498 22.3916 0.989998 22.0982 1.095 21.8242C1.2 21.5503 1.37666 21.296 1.625 21.0612L22.6875 1.28114C23.2708 0.733326 23.99 0.459419 24.845 0.459419C25.7 0.459419 26.4392 0.752892 27.0625 1.33984Z" fill="#46413E"/>
</svg>
