<svg width="28" height="46" viewBox="0 0 28 46" fill="none" xmlns="http://www.w3.org/2000/svg">
<path d="M0.9375 44.5999C0.3125 44.013 0 43.318 0 42.5151C0 41.7121 0.3125 41.018 0.9375 40.4326L19.25 23.2351L0.875 5.97889C0.291666 5.43108 0 4.74631 0 3.92458C0 3.10286 0.3125 2.39852 0.9375 1.81158C1.5625 1.22463 2.3025 0.93116 3.1575 0.93116C4.0125 0.93116 4.75167 1.22463 5.375 1.81158L26.375 21.5917C26.625 21.8264 26.8025 22.0808 26.9075 22.3547C27.0125 22.6286 27.0642 22.9221 27.0625 23.2351C27.0625 23.5481 27.01 23.8416 26.905 24.1155C26.8 24.3894 26.6233 24.6438 26.375 24.8785L5.3125 44.6586C4.72917 45.2064 4.01 45.4803 3.155 45.4803C2.3 45.4803 1.56083 45.1869 0.9375 44.5999Z" fill="#46413E"/>
</svg>
