<svg viewBox="0 0 72 72" fill="none" xmlns="http://www.w3.org/2000/svg">
<path d="M36 0C28.8799 0 21.9197 2.11136 15.9995 6.06709C10.0793 10.0228 5.46511 15.6453 2.74035 22.2234C0.0155977 28.8015 -0.697322 36.0399 0.691746 43.0232C2.08081 50.0066 5.50948 56.4211 10.5442 61.4558C15.5789 66.4905 21.9934 69.9192 28.9768 71.3083C35.9601 72.6973 43.1985 71.9844 49.7766 69.2597C56.3547 66.5349 61.9772 61.9207 65.9329 56.0005C69.8886 50.0803 72 43.1201 72 36C71.9895 26.4554 68.1933 17.3048 61.4443 10.5557C54.6952 3.80669 45.5446 0.0104817 36 0ZM14.7132 61.3512C16.8498 57.5889 19.9454 54.4601 23.6847 52.2835C27.424 50.1068 31.6734 48.9601 36 48.9601C40.3267 48.9601 44.576 50.1068 48.3153 52.2835C52.0546 54.4601 55.1502 57.5889 57.2868 61.3512C51.3285 66.3685 43.7894 69.1199 36 69.1199C28.2106 69.1199 20.6715 66.3685 14.7132 61.3512ZM59.4612 59.3532C55.8839 53.3724 50.1488 48.9915 43.4376 47.1132C46.5579 45.4537 49.0337 42.7984 50.471 39.5697C51.9082 36.341 52.2245 32.7244 51.3693 29.2952C50.5142 25.8661 48.5368 22.8214 45.7518 20.6456C42.9668 18.4698 39.5342 17.2879 36 17.2879C32.4658 17.2879 29.0332 18.4698 26.2482 20.6456C23.4632 22.8214 21.4858 25.8661 20.6307 29.2952C19.7756 32.7244 20.0918 36.341 21.529 39.5697C22.9663 42.7984 25.4421 45.4537 28.5624 47.1132C21.8512 48.9915 16.1162 53.3724 12.5388 59.3532C7.91875 54.7166 4.77613 48.815 3.50777 42.3936C2.23942 35.9721 2.90222 29.3189 5.41246 23.2739C7.92271 17.2289 12.1678 12.0633 17.6118 8.42923C23.0558 4.79519 29.4545 2.85572 36 2.85572C42.5455 2.85572 48.9442 4.79519 54.3882 8.42923C59.8322 12.0633 64.0773 17.2289 66.5876 23.2739C69.0978 29.3189 69.7606 35.9721 68.4922 42.3936C67.2239 48.815 64.0813 54.7166 59.4612 59.3532ZM36 46.08C33.4368 46.08 30.9311 45.3199 28.7998 43.8958C26.6686 42.4718 25.0074 40.4477 24.0265 38.0796C23.0456 35.7114 22.789 33.1056 23.289 30.5916C23.7891 28.0776 25.0234 25.7684 26.8359 23.9559C28.6484 22.1434 30.9576 20.9091 33.4716 20.409C35.9856 19.909 38.5915 20.1656 40.9596 21.1465C43.3277 22.1274 45.3518 23.7885 46.7759 25.9198C48.1999 28.0511 48.96 30.5567 48.96 33.12C48.96 36.5572 47.5946 39.8536 45.1641 42.2841C42.7336 44.7146 39.4372 46.08 36 46.08Z" fill="black"/>
</svg>
