<svg width="24" height="24" viewBox="0 0 43 43" fill="none" xmlns="http://www.w3.org/2000/svg">
<path d="M21.5 14.1094C20.0383 14.1094 18.6094 14.5428 17.394 15.3549C16.1786 16.167 15.2313 17.3213 14.672 18.6717C14.1126 20.0222 13.9662 21.5082 14.2514 22.9418C14.5366 24.3755 15.2404 25.6924 16.274 26.726C17.3076 27.7596 18.6245 28.4634 20.0582 28.7486C21.4918 29.0338 22.9778 28.8874 24.3283 28.328C25.6787 27.7687 26.833 26.8214 27.6451 25.606C28.4572 24.3906 28.8906 22.9617 28.8906 21.5C28.8884 19.5406 28.109 17.662 26.7235 16.2765C25.338 14.891 23.4594 14.1116 21.5 14.1094ZM21.5 27.5469C20.304 27.5469 19.1349 27.1922 18.1405 26.5278C17.1461 25.8634 16.3711 24.919 15.9134 23.814C15.4557 22.7091 15.336 21.4933 15.5693 20.3203C15.8026 19.1473 16.3785 18.0699 17.2242 17.2242C18.0699 16.3785 19.1473 15.8026 20.3203 15.5693C21.4933 15.336 22.7091 15.4557 23.814 15.9134C24.919 16.3711 25.8634 17.1461 26.5278 18.1405C27.1922 19.1349 27.5469 20.304 27.5469 21.5C27.5469 23.1037 26.9098 24.6418 25.7758 25.7758C24.6418 26.9098 23.1037 27.5469 21.5 27.5469ZM29.5625 4.70312H13.4375C11.1218 4.70579 8.90175 5.62687 7.26431 7.26431C5.62687 8.90175 4.70579 11.1218 4.70312 13.4375V29.5625C4.70579 31.8782 5.62687 34.0983 7.26431 35.7357C8.90175 37.3731 11.1218 38.2942 13.4375 38.2969H29.5625C31.8782 38.2942 34.0983 37.3731 35.7357 35.7357C37.3731 34.0983 38.2942 31.8782 38.2969 29.5625V13.4375C38.2942 11.1218 37.3731 8.90175 35.7357 7.26431C34.0983 5.62687 31.8782 4.70579 29.5625 4.70312ZM36.9531 29.5625C36.9509 31.5219 36.1715 33.4005 34.786 34.786C33.4005 36.1715 31.5219 36.9509 29.5625 36.9531H13.4375C11.4781 36.9509 9.59952 36.1715 8.21399 34.786C6.82846 33.4005 6.0491 31.5219 6.04688 29.5625V13.4375C6.0491 11.4781 6.82846 9.59952 8.21399 8.21399C9.59952 6.82846 11.4781 6.0491 13.4375 6.04688H29.5625C31.5219 6.0491 33.4005 6.82846 34.786 8.21399C36.1715 9.59952 36.9509 11.4781 36.9531 13.4375V29.5625ZM31.5781 12.7656C31.5781 13.0314 31.4993 13.2912 31.3517 13.5122C31.204 13.7332 30.9941 13.9054 30.7486 14.0071C30.5031 14.1088 30.2329 14.1354 29.9722 14.0836C29.7116 14.0317 29.4721 13.9037 29.2842 13.7158C29.0963 13.5279 28.9683 13.2884 28.9164 13.0278C28.8646 12.7671 28.8912 12.4969 28.9929 12.2514C29.0946 12.0059 29.2668 11.796 29.4878 11.6483C29.7088 11.5007 29.9686 11.4219 30.2344 11.4219C30.5908 11.4219 30.9325 11.5634 31.1846 11.8155C31.4366 12.0675 31.5781 12.4092 31.5781 12.7656Z" fill="white"/>
</svg>
