<svg width="30" height="30" viewBox="0 0 55 55" fill="white" xmlns="http://www.w3.org/2000/svg">
<path d="M33.1695 34.1786C30.6761 36.3922 27.4227 37.5547 24.0911 37.4225C20.7596 37.2903 17.6085 35.8736 15.2984 33.4694C12.9884 31.0651 11.6986 27.86 11.6996 24.5258C11.7005 21.1916 12.9921 17.9872 15.3035 15.5843C17.615 13.1813 20.7669 11.7664 24.0985 11.6361C27.4301 11.5058 30.6829 12.6702 33.175 14.8853C35.667 17.1003 37.2049 20.194 37.4663 23.518C37.7277 26.8419 36.6922 30.138 34.577 32.7153L33.2192 31.601C35.0465 29.3745 35.941 26.5271 35.7152 23.6557C35.4894 20.7842 34.1608 18.1116 32.008 16.1981C29.8552 14.2846 27.0453 13.2787 24.1672 13.3913C21.289 13.5039 18.5662 14.7262 16.5695 16.802C14.5727 18.8778 13.4569 21.646 13.4561 24.5263C13.4553 27.4066 14.5694 30.1754 16.565 32.2524C18.5606 34.3293 21.2827 35.5532 24.1608 35.6674C27.0388 35.7816 29.8494 34.7773 32.0033 32.865L33.1695 34.1786Z" fill="white" />
<rect width="2.68553" height="6.05243" transform="matrix(0.706076 -0.708136 0.706952 0.707261 31.5979 33.3349)" fill="white" />
<rect width="4.92645" height="9.0599" transform="matrix(0.696881 -0.717187 0.71796 0.696084 34.2573 37.6459)" fill="white" />
</svg>
